<svg width="718" height="233" viewBox="0 0 718 233" fill="none" xmlns="http://www.w3.org/2000/svg">
<path fill-rule="evenodd" clip-rule="evenodd" d="M714.098 20.6079C715.736 12.8587 713.973 3.34998 706.189 0.0670474L706.153 0H15C6.71573 0 0 6.71572 0 15V218C0 226.284 6.71572 233 15 233H715C715.268 233 715.534 232.993 715.799 232.979C715.792 232.514 715.786 232.048 715.78 231.583C715.698 225.154 715.617 218.74 713.874 212.571C712.895 209.057 711.384 205.654 709.877 202.261C707.382 196.643 704.897 191.049 704.855 185.014C704.829 178.91 707.328 173.081 709.823 167.262C712.461 161.108 715.095 154.965 714.732 148.52C714.448 143.28 712.218 138.449 709.983 133.608C708.07 129.465 706.154 125.315 705.454 120.898C704.033 112.048 707.556 103.38 711.084 94.7025C714.582 86.0987 718.083 77.4861 716.77 68.6783C716.182 64.6912 714.607 60.9016 713.034 57.1188C711.216 52.7434 709.401 48.3772 709.121 43.725C708.798 38.529 710.364 33.4828 711.935 28.4188C712.739 25.8273 713.544 23.2312 714.098 20.6079Z" fill="white"/>
<path d="M662.061 199.061C662.646 198.475 662.646 197.525 662.061 196.939L652.515 187.393C651.929 186.808 650.979 186.808 650.393 187.393C649.808 187.979 649.808 188.929 650.393 189.515L658.879 198L650.393 206.485C649.808 207.071 649.808 208.021 650.393 208.607C650.979 209.192 651.929 209.192 652.515 208.607L662.061 199.061ZM561 199.5L661 199.5L661 196.5L561 196.5L561 199.5Z" fill="black"/>
</svg>
